<mxfile host="app.diagrams.net" modified="2024-01-18T14:36:45.908Z" agent="Mozilla/5.0 (Windows NT 10.0; Win64; x64) AppleWebKit/537.36 (KHTML, like Gecko) Chrome/117.0.0.0 Safari/537.36" etag="kpOyjFAiE36Q21VtVdTR" version="22.1.21" type="device">
  <diagram name="Page-1" id="hm5dPHAnDirZKXwZYmce">
    <mxGraphModel dx="1674" dy="790" grid="1" gridSize="10" guides="1" tooltips="1" connect="1" arrows="1" fold="1" page="1" pageScale="1" pageWidth="827" pageHeight="1169" math="0" shadow="0">
      <root>
        <mxCell id="0" />
        <mxCell id="1" parent="0" />
        <mxCell id="7EOolFi6XDi4Onh_hjoU-1" value="&lt;font style=&quot;vertical-align: inherit;&quot;&gt;&lt;font style=&quot;vertical-align: inherit;&quot;&gt;START&lt;/font&gt;&lt;/font&gt;" style="ellipse;whiteSpace=wrap;html=1;" vertex="1" parent="1">
          <mxGeometry x="220" y="20" width="120" height="80" as="geometry" />
        </mxCell>
        <mxCell id="7EOolFi6XDi4Onh_hjoU-3" value="" style="shape=flexArrow;endArrow=classic;html=1;rounded=0;exitX=0.417;exitY=1;exitDx=0;exitDy=0;exitPerimeter=0;width=10;endSize=6;" edge="1" parent="1" source="7EOolFi6XDi4Onh_hjoU-1">
          <mxGeometry width="50" height="50" relative="1" as="geometry">
            <mxPoint x="169.5" y="110" as="sourcePoint" />
            <mxPoint x="270" y="150" as="targetPoint" />
          </mxGeometry>
        </mxCell>
        <mxCell id="7EOolFi6XDi4Onh_hjoU-4" value="&lt;font style=&quot;vertical-align: inherit;&quot;&gt;&lt;font style=&quot;vertical-align: inherit;&quot;&gt;INPUT AUDIO&lt;/font&gt;&lt;/font&gt;" style="shape=parallelogram;perimeter=parallelogramPerimeter;whiteSpace=wrap;html=1;fixedSize=1;" vertex="1" parent="1">
          <mxGeometry x="210" y="170" width="120" height="60" as="geometry" />
        </mxCell>
        <mxCell id="7EOolFi6XDi4Onh_hjoU-5" value="&lt;font size=&quot;3&quot;&gt;calculate length of input audio&lt;/font&gt;" style="rounded=0;whiteSpace=wrap;html=1;" vertex="1" parent="1">
          <mxGeometry x="110" y="320" width="120" height="60" as="geometry" />
        </mxCell>
        <mxCell id="7EOolFi6XDi4Onh_hjoU-6" value="" style="shape=flexArrow;endArrow=classic;html=1;rounded=0;entryX=0.336;entryY=0.029;entryDx=0;entryDy=0;entryPerimeter=0;" edge="1" parent="1">
          <mxGeometry width="50" height="50" relative="1" as="geometry">
            <mxPoint x="160" y="248.26" as="sourcePoint" />
            <mxPoint x="160.32000000000005" y="320" as="targetPoint" />
            <Array as="points" />
          </mxGeometry>
        </mxCell>
        <mxCell id="7EOolFi6XDi4Onh_hjoU-7" value="" style="shape=flexArrow;endArrow=classic;html=1;rounded=0;" edge="1" parent="1">
          <mxGeometry width="50" height="50" relative="1" as="geometry">
            <mxPoint x="384" y="250" as="sourcePoint" />
            <mxPoint x="384" y="320" as="targetPoint" />
            <Array as="points">
              <mxPoint x="384" y="290" />
            </Array>
          </mxGeometry>
        </mxCell>
        <mxCell id="7EOolFi6XDi4Onh_hjoU-9" value="Create time series to plot the data" style="rounded=0;whiteSpace=wrap;html=1;" vertex="1" parent="1">
          <mxGeometry x="310" y="320.00000000000006" width="120" height="60" as="geometry" />
        </mxCell>
        <mxCell id="7EOolFi6XDi4Onh_hjoU-13" value="&lt;div&gt;&lt;div style=&quot;border-color: var(--border-color);&quot;&gt;Selecting the number of FFT points&lt;/div&gt;&lt;/div&gt;&lt;div&gt;&lt;br&gt;&lt;/div&gt;&lt;div&gt;nfft = 2^nextpow2(length(audio_data)); %&amp;nbsp;&lt;span style=&quot;background-color: initial;&quot;&gt;fft_result = fft(audio_data, nfft);&lt;/span&gt;&lt;/div&gt;&lt;div&gt;fft_result = fft_result(1:nfft/2);&lt;/div&gt;" style="rounded=0;whiteSpace=wrap;html=1;" vertex="1" parent="1">
          <mxGeometry x="145" y="400" width="250" height="80" as="geometry" />
        </mxCell>
        <mxCell id="7EOolFi6XDi4Onh_hjoU-14" value="&lt;div&gt;% Calculate the frequency axis&lt;/div&gt;&lt;div&gt;&lt;br&gt;&lt;/div&gt;&lt;div&gt;frequencies = (0:nfft/2-1) * Fs / nfft;&lt;/div&gt;" style="rounded=0;whiteSpace=wrap;html=1;" vertex="1" parent="1">
          <mxGeometry x="170" y="510" width="190" height="60" as="geometry" />
        </mxCell>
        <mxCell id="7EOolFi6XDi4Onh_hjoU-16" value="&lt;div&gt;&amp;nbsp;Normalize frequencies&lt;/div&gt;&lt;div&gt;&lt;br&gt;&lt;/div&gt;&lt;div&gt;normalized_center_freq&amp;nbsp;&lt;/div&gt;&lt;div&gt;normalized_lower_freq&amp;nbsp;&lt;/div&gt;&lt;div&gt;normalized_upper_freq&amp;nbsp;&lt;/div&gt;" style="rounded=0;whiteSpace=wrap;html=1;" vertex="1" parent="1">
          <mxGeometry x="170" y="720" width="185" height="90" as="geometry" />
        </mxCell>
        <mxCell id="7EOolFi6XDi4Onh_hjoU-17" value="&lt;br&gt;&lt;div style=&quot;border-color: var(--border-color); color: rgb(0, 0, 0); font-family: Helvetica; font-size: 12px; font-style: normal; font-variant-ligatures: normal; font-variant-caps: normal; font-weight: 400; letter-spacing: normal; orphans: 2; text-align: center; text-indent: 0px; text-transform: none; widows: 2; word-spacing: 0px; -webkit-text-stroke-width: 0px; background-color: rgb(251, 251, 251); text-decoration-thickness: initial; text-decoration-style: initial; text-decoration-color: initial;&quot;&gt;&amp;nbsp;Define parameters for the bandpass filter&lt;/div&gt;&lt;div style=&quot;border-color: var(--border-color); color: rgb(0, 0, 0); font-family: Helvetica; font-size: 12px; font-style: normal; font-variant-ligatures: normal; font-variant-caps: normal; font-weight: 400; letter-spacing: normal; orphans: 2; text-align: center; text-indent: 0px; text-transform: none; widows: 2; word-spacing: 0px; -webkit-text-stroke-width: 0px; background-color: rgb(251, 251, 251); text-decoration-thickness: initial; text-decoration-style: initial; text-decoration-color: initial;&quot;&gt;&lt;br&gt;&lt;/div&gt;&lt;div style=&quot;border-color: var(--border-color); color: rgb(0, 0, 0); font-family: Helvetica; font-size: 12px; font-style: normal; font-variant-ligatures: normal; font-variant-caps: normal; font-weight: 400; letter-spacing: normal; orphans: 2; text-align: center; text-indent: 0px; text-transform: none; widows: 2; word-spacing: 0px; -webkit-text-stroke-width: 0px; background-color: rgb(251, 251, 251); text-decoration-thickness: initial; text-decoration-style: initial; text-decoration-color: initial;&quot;&gt;center_freq = 300&lt;/div&gt;&lt;div style=&quot;border-color: var(--border-color); color: rgb(0, 0, 0); font-family: Helvetica; font-size: 12px; font-style: normal; font-variant-ligatures: normal; font-variant-caps: normal; font-weight: 400; letter-spacing: normal; orphans: 2; text-align: center; text-indent: 0px; text-transform: none; widows: 2; word-spacing: 0px; -webkit-text-stroke-width: 0px; background-color: rgb(251, 251, 251); text-decoration-thickness: initial; text-decoration-style: initial; text-decoration-color: initial;&quot;&gt;lower_freq = 295&lt;/div&gt;&lt;div style=&quot;border-color: var(--border-color); color: rgb(0, 0, 0); font-family: Helvetica; font-size: 12px; font-style: normal; font-variant-ligatures: normal; font-variant-caps: normal; font-weight: 400; letter-spacing: normal; orphans: 2; text-align: center; text-indent: 0px; text-transform: none; widows: 2; word-spacing: 0px; -webkit-text-stroke-width: 0px; background-color: rgb(251, 251, 251); text-decoration-thickness: initial; text-decoration-style: initial; text-decoration-color: initial;&quot;&gt;upper_freq = 305&lt;/div&gt;&lt;div style=&quot;border-color: var(--border-color); color: rgb(0, 0, 0); font-family: Helvetica; font-size: 12px; font-style: normal; font-variant-ligatures: normal; font-variant-caps: normal; font-weight: 400; letter-spacing: normal; orphans: 2; text-align: center; text-indent: 0px; text-transform: none; widows: 2; word-spacing: 0px; -webkit-text-stroke-width: 0px; background-color: rgb(251, 251, 251); text-decoration-thickness: initial; text-decoration-style: initial; text-decoration-color: initial;&quot;&gt;filter_order = 10&lt;/div&gt;" style="rounded=1;whiteSpace=wrap;html=1;" vertex="1" parent="1">
          <mxGeometry x="145" y="585" width="230" height="110" as="geometry" />
        </mxCell>
        <mxCell id="7EOolFi6XDi4Onh_hjoU-21" value="" style="html=1;shadow=0;dashed=0;align=center;verticalAlign=middle;shape=mxgraph.arrows2.triadArrow;dy=10;dx=20;arrowHead=40;" vertex="1" parent="1">
          <mxGeometry x="165" y="230" width="210" height="60" as="geometry" />
        </mxCell>
        <mxCell id="7EOolFi6XDi4Onh_hjoU-23" value="&lt;div&gt;% Design a bandpass filter&lt;/div&gt;&lt;div&gt;bandpass_filter = fir1(filter_order, [normalized_lower_freq normalized_upper_freq], &#39;bandpass&#39;);&lt;/div&gt;&lt;div&gt;&lt;br&gt;&lt;/div&gt;&lt;div&gt;% Apply the bandpass filter to the audio data&lt;/div&gt;&lt;div&gt;filtered_audio = filter(bandpass_filter, 1, audio_data);&lt;/div&gt;&lt;div&gt;&lt;br&gt;&lt;/div&gt;" style="rounded=0;whiteSpace=wrap;html=1;" vertex="1" parent="1">
          <mxGeometry x="80" y="830" width="350" height="100" as="geometry" />
        </mxCell>
        <mxCell id="7EOolFi6XDi4Onh_hjoU-24" value="&amp;nbsp;Filter apply&lt;br&gt;&amp;nbsp;&lt;br&gt;filtered_fft_result&lt;br&gt;filtered_fft_result&lt;br&gt;amplitude_filtered" style="rounded=1;whiteSpace=wrap;html=1;" vertex="1" parent="1">
          <mxGeometry x="180" y="950" width="130" height="80" as="geometry" />
        </mxCell>
        <mxCell id="7EOolFi6XDi4Onh_hjoU-26" value="Plot of filtered signal&lt;br&gt;&amp;nbsp;&lt;br&gt;Filtered - Amplitude VS Time&lt;br&gt;plot(time, filtered_audio)" style="shape=parallelogram;perimeter=parallelogramPerimeter;whiteSpace=wrap;html=1;fixedSize=1;" vertex="1" parent="1">
          <mxGeometry x="450" y="840" width="180" height="80" as="geometry" />
        </mxCell>
        <mxCell id="7EOolFi6XDi4Onh_hjoU-30" value="" style="shape=parallelogram;perimeter=parallelogramPerimeter;whiteSpace=wrap;html=1;fixedSize=1;" vertex="1" parent="1">
          <mxGeometry x="644" y="827.5" width="183" height="135" as="geometry" />
        </mxCell>
        <mxCell id="7EOolFi6XDi4Onh_hjoU-31" value="" style="shape=image;verticalLabelPosition=bottom;labelBackgroundColor=default;verticalAlign=top;aspect=fixed;imageAspect=0;image=data:image/png,iVBORw0KGgoAAAANSUhEUgAAAUIAAAEICAYAAAAqbv2WAAAgAElEQVR4Ae29B7gVRbaw7dzv+++de/+b596538w3c2fuzD+mGeOMaRwzBlQcCWYFFcyKARQRBEUQFcyAEkQlGBAQUXLOknPOORxyjq7/eeuwNrV7d+/dO/c+p+p5+vTuVF29uus9a9VaVXWSuOQk4CTgJFDJJXBSJX9+9/hOAk4CTgLiQOg+AicBJ4FKLwEHwkr/CTgBOAk4CTgQum/AScBJoNJLwIGw0n8C6Qtg48aN0qhRI3nyyScTlmnTpsnevXulSZMmsmHDBjly5Ih06tRJZs6caW50+PBhmT9/fvo3zfAK7te+fXvZsWNH0hxmzZolzz33nClz0hNDHJw3b5506dLFnLlgwQL54IMPQlzlTimmBBwIiyn9Er03IPv5z38uf/rTn+SCCy6IWwYPHmygc91118ny5cvl4MGDUq1aNenVq5f88MMP8sYbbxjgFOrR9+/fL1WqVJG1a9cmveVTTz0lZ511lnz66adJzwtz8Ntvv5Wbb77ZnDpp0iTzzyLMde6c4knAgbB4si/ZOwPCyy67THbv3p3yGbwgfO211yIHwl27dskNN9wg3333nVx//fWyZ8+elM+V7AQbhMnOc8eiIwEHwui8i5IpSSoQlpWVyU9/+lOZO3dunEY4cuRIOeWUU+R//ud/5K9//asB6bZt2+Sxxx6Tq666Sq6++mqpWrVqzHTmGJrl448/bo517txZjh07Jn379jXbaHpXXnmldOzYMSY7zPb777/f7L/77rtl7NixJu8gjRAt9fPPP5caNWrIzp075dRTTxXKqQmQX3vttYKmq2nJkiXyu9/9Tg4cOGB2TZ482ZSHsqJZfvzxxzGNcNCgQeYZ9Nrvv//ebPO8l19+udSvX1+2b9+uh926SBJwICyS4Ev5toAQk3jq1KlCG5gu69evN+ZvEAiBjq0Rst2sWTO57777BBOW7d69exutjG1A+Ktf/Uo++eSTmLi4NzCdPXu22ce9rrjiChk/fry5vnHjxlKvXj0D4EOHDhnI/v73vw80jYEZWmD37t0NZGnbfPTRR2P3SwVCynjJJZfIwIEDzTWbN2+Wa665xheEHDvvvPOM5smzonneeuut0rx5c1P22E3dj4JLwIGw4CIv/RsCo3/913+Vk046KW6pU6eOcY6EBeHWrVsNxGxt7ejRowayEydONCAEuKtWrYoJDWi8+OKLceB47733DEzRrNASV6xYETsf+Fx00UWBIKQd87e//W3sGgBL2ydlI6UC4ZAhQ+S0006Tffv2mfMBXIcOHXxBCGzRBDlH0+rVq41mqPfT/W5dWAk4EBZW3hXibpmaxgDA1ggXLlwo//Ef/2FMT0xiXX7yk59Ijx49DAgxSzFZSXig77jjDjn77LNj53LNOeecI3/5y19k0aJFxiTGa62JazjHhq0eY41H+YwzzpBXX31VXn/9dWnVqpX8+te/Nloo5U0Fwm7duhmzGu+0pjFjxiSAkLzatm2b4DhB8z333HMFc9ul4knAgbB4si/ZO+cKhIALqKk25RUIZqcXhHfeeadpg/Oey/a6deuMhonzQ1MyEGKaYlbjKCFfXYAqcCIfPxACcG0jBNiY1pjhmmiXVK+xthECwrfeeivO7OZ8np0yBIFa83Tr/ErAgTC/8q2QuecKhIAIhwFmsCacIU2bNjVtgF4Qcg5m8D333BMHnq+++kreeecd086IE2bChAmanSxbtsxojH6gQXP75S9/KZjydgLQP/7xj00bKCAEdDhoNPXv3z8GQuIjcbBonCLlb9myZQIIuXbYsGGmjRDzXxPPjjkf9M9Az3Pr/ErAgTC/8q2QuWcKQoTRs2dP4zUlgBltrWvXrgZUgAaPKoHaeHDRxvxAiEOGdkPaCgneBoLnn39+zNOLswXnCCEsw4cPN9oeXmo/ED7zzDPyyCOPmHLYLwr43XbbbfLss88aBwrmM+Y14ARmODjQGHG0oAk+/fTTQvsoAP7ss89Mm6NXIyR/zOB7773XOHMAYJ8+fYxGjExcKq4EHAiLK/+SvDsaU7J4Oxr+cUDgTQYUQOXrr782z0rs4e233y4/+9nPZNOmTWYfUEQzJEj7+eefNz1TOIDzo3r16gaKtqAACpD6l3/5F+Oh1V4reg75aaA3cL3pppuM2azHWZPHhRdeKKNGjbJ3x34TQkPbI71jMGvRONEe0UbpOUK5NHyG9sEPP/zQeLgBHeE4mNkkwAnYNXENQeW/+MUvTNkxs10qvgQKBkI+FtpTCE0gHoz/ukGJ//qYR8RkEZlvJ/6zc4z/5mgEfKQuOQk4CTgJZCOBgoCQNhEaijFDMAcIIgVmdgOzPsSWLVuMBvH++++b2K6aNWuathqOL1682GgO7dq1ky+//NKYKwMGDNBL3dpJwEnASSAjCRQEhMRKEXWvXbJoJCeeip4HdkK7o4N+ixYtYrtpd7nllluMBgn8tDM7J3DsiSeeiJ3rfjgJOAk4CWQigYKAkHYYujtprBWN5JjI/fr1iyszmiPaor2fYFoav9EU7UQ7FBqmDUb7uPvtJOAk4CQQVgIFASGePbo9AUASIQatW7c2HkO7oICyVq1aQuyVJoBHeILduwDPILFXeO/sXgR6DW2MdLVCs6wICw6EivAc+gx0Y9PfFWFNe/VLL71UYZ6pQYMGFeZZ+L7ofpkqFQSEgMsLQiL5CZ2wE6DEDE4FQs7D2UJ7o5rNdj6Y0OSNZ7AiLIxnhye0IjwLz0AXtIryLDzHAw88YCyWivJMeMsryrOgQNWtW9fGg+/vgoCQmCm0N3WOALKHHnrIxHrZpUJTbNiwoel4r/tXrlwpZ555ZkLQK8fRIDG5vTFigBAPdUVJmP8VKcyCqIGKlGiiod27oiRAWFESIVqRASFDIzE4J2sS7X04S/z6VxKDxUjBQJHEGHH8xwV6b7/9tulepcfoME9MmvZFNReIGI9yRQKhPpdbOwk4CaQngUiBEG8wWgBdiYAZwbiE0wA0tEPaJOi8TqJHAdojY9C9/PLLphO9tgMSyMswRrTJEJRK0Czg9KaKphF6n89tOwk4CYSTQKRASJHR6Oii9NFHH8mIESNiHmRgyFhudu8A+n4CM4ZN92qNaJVffPGFGR2ECH/VDm2xOBDa0nC/nQQqrwQiB8JCvgoHwkJK293LSSC6EnAgrEDOkuh+Zq5kTgLRloADoQNhtL9Qn9It2LRXRix183f4iMbtylACDoQOhBl+OsW7zIGweLKvqHd2IHQgLLlv24Gw5F5Z5AvsQOhAGPmP1FtAB0KvRNx2thJwIHQgzPYbKvj1DoQFF3mFv6EDoQNhyX3kDoQl98oiX2AHQgfCyH+k3gI6EHol4razlYADoQNhtt9Qwa93ICy4yCv8DR0IHQhL7iN3ICy5Vxb5AjsQOhBG/iP1FtCB0CsRt52tBBwIHQiz/YYKfr0DYcFFXuFv6EDoQFhyH7kDYcm9ssgX2IHQgTDyH6m3gFEH4fb9R8TNou19a9HediB0IIz2F+pTOkDYathKnyPR2PXhxHVy9JhDYTTeRrhSOBA6EIb7Uop81uhlJ0abAYQvDV5R5BIF3779+LUOhMHiieQRB0IHwkh+mN5CvTN2TWxXqYBw/a6DsTK7H9GWgAOhA2G0v9DjpStFED7zzZKSkK0rpIgDoQNhSdQDG4SnvfZ9pE3jN0aukiPHfpAnv15cErJ1hXQgrFDzGlfkDxq4aIo6CF8asiKSINy277BMWLlTxejWlgScRug0QutziO7Ph79aFCtcKhAOWLA1dm4xfkQVhEMXb3MgDPggHAgdCAM+jWjtDgvCSat2So9pG4taeAXh3T3nFbQcG3YdlGaDlgfe04EwUDTRayNkkncmb4fQO3bsELaDEpO+M7fx5s2bZf/+/XGnHT16VLZu3Wry2b17t28+bjrPOJFFegMQEppHaEoyjTBKILym48yCynTy6l0OhBlKPHIa4dChQ+Waa66Rxx9/XK699lrp06eP76MxEXzjxo3l1ltvlbp165r1tm3bzLmA74EHHpBatWrJE088IVdeeaWQrzc5EHolUvjt+Zv2ypBF5e8t2d0rAwjtWMlksgg65kAYJJnU+yMFwu3bt8ttt90mixeXe9tWrFgh1113naxbty7hSQAbsDt27Jg51qVLF2natKmgCQ4YMEDq1asn+/btM8emTZsmd911lxw4cCAuHwfCOHEUZWPS6p3SPYQpCwjprUEgdZQ1wi9mbJLfv/69cZakqxF+NXtzVu/AgTBz8UUKhJMmTZJq1arJwYPlgahofWh7gwYNintC4Pfcc8/FeXyXLVsm5557rqAVdurUKU4D3Lt3r9x7773G5LYzciC0pVGc3/kG4f7D5f8oC/V02YDwy1m5AeHCzfvkj29NkWOeZqVs2wjfH7e2UGIs+H0iBcJ+/foZTY62PxLAa968uXTr1i1OMBxHw7MBSTvhqaeeKmvWnOiBoHl89NFH8tRTT8W0R80MEGI69+/f37Q16n63LpwE8g3C2p/NT3iYF5M4FBJOTnNHNiBsPeJEiFCatzWnq0bYffpGA8KlW+PbzbMFYZS7NWYiL72G+t+9e3epXbu27gpcnxR4JIcHevXqlQDC1q1bS9euXePugqZYo0aNOBDiGAGEq1ad+Jgwk3nIG2+8UZYuXRqXBxuA8P7775f27dv7mt8JF7gdOZdAMUCYrsmazkOnAuG4FTtky57Dvlk6EPqKJe87e/ToIW+++abUqVMn5b0KAsJhw4bFgRCQ1a9fX3r37h1XQPY/8sgjcSBEEwSEGzeeCJ0AcFdffbXs3OkfROpM4zixFmWjsoHw1k/nyvgV/t+jA2FRPkFz00iZxmht119/vdCmR8LZgTY3ZcqUOAkRUvPuu+/KW2+9Fds/ffp0qVq1qrmWNsYXX3xRGjZsKFu2bImd4/3hQOiVSOG2Z63fY26WDIR952yR14+bi+osqfflwrScJX6mcTE1wmKCcNDCrfLNvLKMX3KuTGMC3g8dLWzbbaqHjhQIARhteTg7lixZYtoGMV0BI/CbNWtWzPRduHCh1KxZ00By/vz58thjj0nfvn3N86JBXnHFFTJ69GjBY8wye/Zs0bZHFYoDoUqi8GutVOmA8IoO0+WWT+b6gnDxlvIIAW8coQPhiXcbFRDy7jfsOnSiYBH4FSkQIg+CqdHkzjrrLOPIIKiaRLvgfffdJx06dIiJDS2QmMMLLrjAtPcBS86755575JRTTjGmMuYyC2D0msgOhDFRFvxHrkEYy8/Ts6QigHDf4aOh3k8qZ4kDYbAYIwfC4KLm/ogDYe5lGjbHGLiSxBF6TeNkGmEsvwoIwnbj1yaEwvjJ2Q+EB48ck+/ml5vD+QBh+/GJMb5+ZbP38a4KqRGu23lQruwwwy5Cwm8HQtfXOOGjKMSOGLgcCGPiDnKWZAPCPQePxoYsywcIq3WZHSt/2B+FBuHs9XscCJO9HKcRJpNOfo9RGW76aLbkqo0wBtYUGiHjBJ7/ztS8PVyq8JlMnCWlCsJdB47IGW2+T5B1OiB83Rp+LSGjkDscCFMIyoEwhYDyePjuHvPkwnenGhD+6pUJsmZHfPdHbp0P0/jw0R/kT2/HRyHk8jGLBcLdB49KzU/mmEEXCKj+r+bjhIBq1QjbjFothdYId+w/Ij9pOjZBvGFB2HvWZmkycFnC9d4dh47+ID2nnwib8x53IPRKxLPtQOgRSAE3vSCcsmZXwt1zCUK62i3cvFeiAsJV2w8ktPthGt/QeZYwHaidwmiEG3cdkus7zYqB8KRnRuQVhN8eb3fEND5wxD8UJt8gLNtbHpi+79BRub3bXFtkcb8dCOPEkbjhQJgok0LtyQUIu3y/XhYdD5tJZRozRuG7Y9fEgRAzeaoPgLORQViNkIq791C8NzgIhC2Grkg5K14uQPja8FUCvNDOa32aCBaVMfKxQcgIQn4pCIQ1P54TylmSSiN8b+xa8/4yBSHPyD9GknOWOGeJ3zec932A8Bcvj5frOs0UTONMNMLXRqySWRvKA7O1kgbFEQJNLwipBB0m5HYggaaDlicdfUbbCNMBYbPBywsCwqe+XiJb9x6WZVv3m77K3o9AZcz+MCBcue2A/FPj0SabrfsOG42cDTTXMF5jG4RfzNzkLY4AwjHLdkimIGRgCsxqmgwGTV9qBnhJuIlnR0G62HnumfdNpxHmXcSBN8gVCKevY9BdiXlGMwEhZnPw8L/lj0DFDTNpu4KQ/sSXt5+e8PylDMJ7ep4YwAIQjl2xQzCN/TTCB3stFMD6t8+OMjJYtHmf9JlTPrpOJiCkycCbvCBEw9+0OzFQO8g0tkHYst8MB0KvgN12/iWQKxC2HbVaAJlqK5mAcPSyHWb8wGRPTUXcsiexknmvURAyZD4OC29yIAynEfLP7bZuc2POEhuEn07dYMTqBeHqHQfklk/neEUuDoQJIonf4TTCeHkUcisjELafLjd2nhXrYodpDAAxjdA+vpy5WbwgRCvDDPUzjTmGaWyDkIZ/u9KpTPxAaE8xqudFFYQP9FpoTMDnvwv2wqYyjVNphB0nrpOJK3fKkMVbxasRTl2zW/Bmk8JohICQ96NeY/udPNZnkRA8Xr/v4jjTOFMQth6+SpxG6NoItQ4XdJ0OCJ/tv9RUCioGi45QbYPwrh7z5KJ3pxlzDccIgNy855A5X0H4u1cnxjlL/EDIlJdVOyXONZIKhE/3K5/MPeog/MMb3xsN2u9lpwLhnd3LJ6PCBEV2ahqj5ZIe7b2o4CAcuGCr4D1Ge8wUhNd8ONOBkLHIXCq8BMKCsNYnc0zgtUIwFQjfGbPGzGKXDQh/2WJ8gkByCUIGhi20s0Q1QkDIPxa/NtFUIET2pJnrdxcMhMAXp5afRgjAKBPv+sYuszIG4f/36kQHQgfChDpfkB1hQWgDUH/bGiHm0c4DR0yFQCMMC0LaFclPTeNpa3bLnA17BI1QPZ22IMKAkH695MmcJZe1mx7YRsg5uQLhqKXbTTFThc/YIERzSweEAxduFaYKpdykIBACrSofzsipaQy4CTPyA+EF70w1ZQoLwq9mbZamA09Md6rOEgfCL7+Mm/fE/vDd7/xKIBsQnvraJKMFYBpnCsKNu8vN5nIQbpdmg1YIYySmA8K3x5yYFgJINBm4XKi4fiDU+UMwI5OB8N+ajkkIqE4WPoNzgLi/MCB8YUB5+bwgxBtO+YI0QkBYrcuslCDkuVhy2UYYBoTNB4XTCB0IA+q0c5YECKYAuwHhP78w2lScZHGEWrns9X+8ONaAKxsQfjp1o7k3IHym3xJ5ceDytEH4eN/y2RYRF+VLBsIB87fKiCXbpZAgZCRs7WKHRmiDUCeCZxzHM9tMlv7zynxBOHLpdok6CK/vPCuUaexAGFCxHQgDBFOA3emCEC3wRw1GGOCkAuF/vzLBmFJ+zpJu0zYKWhfmFPDCAwmcwoKQhnk8lnihMak0hQFh18kbzL3Oe3tKoGmsGuH0tbtlzPLysTgz1QiZLzoIhJSXNHHVTvlfDUcGgvDjKRuMrH720ngjL64JMo3Jk0U1Qn5rHGGnSesz8hqn0giRJSC8+L1pKdsIAeH9XyyIxYM60/j41+tAeFwQRVhlAkL6z1IxfvTMCAOuII1QQUjPFSqj7TVuMmB5ViAcu3yH3NF9XlYg/O8W43MKwiofzIiZxr9pNdEAB1kpCGt8PEe8GiFy4R9FNiDEJP3PF8cauPMJkSfLVR/MML2G+A0ItadKJuEzqUCINQEI/0/zcaFASH60D5McCI9XfAfC44IowioZCPm4SQy6oJULjZDK/fs3vjdrGr3v+3yBbxuhgvCnzcYlgBDtz9YIb+46Oy2NMFcgJESn5bCVcZKnr3EmGiEy0jZCZPdE38VGRgpCntEPhJsyACEj3KhGiBb9Ex8QUp6fvVQue0DIKDhAxw+EaNg6f40tDI0jDANC/hH8W5MxZlKsi96dKrwjO2lANRqhA6EtmeO/HQh9hFKgXX4gJBia9OPnRhltJh8gpJICm5u6zI5BFrh6TWO0JTup19gLwhXb9pvwDvL1thECbk20EappjEbI+SwkNCbMbS8IdaKlVKYx+aQC4W3d5hlNFhDgLOGaZCDEcz534x7xmsaZgHDCyp2+ICR4nXZTLwiHLd4Wk48NQp2XhiaJB75cKHiNAT/P8o+NR4cC4a9bTnAaoX6UunYgVEkUfu0HQhrtGZ4KEBKgHAaEaAPe8JlkGiGVBhD+/HibF9t+IGw7enWcUIJA2GrYStm+/7AxBRWE/7vhSBM+ExaEHSeu9wUheX89Z4uc8+Zk0671woDEXiF4jXmGVCA8960pRksELOqw8QMhmhxgBoS9Z2+WFkNXxrURZgJCepnYGuEV7afL0rL9xttN2Xt4xhJkHwtlVRBi8tO+R0xhWBASZM27IcaQofrRCHknzjSO+7TLJ3h3cYQeoRRokw/d6zUGhO3Hr00A4b83HSNBpjH5ZAJC2pSI9WOQVgUheWn4jD0ycv/5Zcb5Ql9jr0aoICQ/BSGVjbxtEDINqZ9GyOgpaDZ+GiF5M6zX6a9/b0BY/+vFgrfbTpmAsNYn5SE8fiD82+dGyUtDVsRAiFOJRZ0lAA3TmDKFNY3rfrEgDoTIecmWfTEQfnK877A+F8cvaz9dTn99kgEh3m4ATVsvoxWFBeF1HWcKo96Qnx8If/3KBOMkIj/Xxc71LNHvr6BrPk4/ENbuOT8GQtq2OM8PhPd/vkBu7VZeoTMF4aXtyrVBBSEw8wMh/XNTaYRce2m7aabi+oHwd60nxoEQbyfP5gXh//v8aFmxdb8xY/1AeMG7U80AEWq65wOEf35vWgyEANwMIHG8vRVNGhACJhuEPDPPQ5sha7uNMAwIP5h4YhIorvcDId8DvUlSgXDwoq3mWyYfXbwgXL39gGlXBLIOhC6guqDws2/GB5oKhP/3uNfXD4RUPPUKpwIh2iThLvQ15r6YxuXgKh4IadOiLJmCsMOEcnCEBSHdBpEZpqafRghkCKhGI1QQAkCuee7bpQaMlNcGIdqZOkvSBSHlJhCcPNEI+aemiX3ZgPDdceWB7uSjixeENL3gYHEgFGca64dX6DWV7tw3JweCkEpFe1AqEAIzPvRUIKSBPBMQjl+5UxgQNBONkEZ8nkOTVyPMFoQnt54oH0/eYIadQgZ2GyGmNve2vcZoaOwDhJjtXGObxgoMG4QAkGuCQMg1XhD+faNRgqadTCM8/50pxlRWEAJgvL2ayDcVCNHQg5wlmYDw0W6TojUeYVlZmTzzzDNy4YUXykMPPSTr169X+cStmcx94sSJct1118mll14qXbp0kSNH4ud64JxevXrJkCFD4q7VDecsUUkUdg0IMUfQCH/caFRshGraCDGNqXwKwovfn2a2vW2EnMNCpfEDYdVOs0yMG8czASGhLTgpFITkw9Jn9pa4OELMV8rqNY21fCpZQEhfXCo8XuMwIGz4zVJ5vM9i+W2ribE2QjWNw4CQvtdabhuEtL2xPx8g5LkveX+aASGTcxE+4zWN/UDI82iibKlAiPPHD4Tc3wtCZJ5KI6zRbnR0QHjo0CF58sknpXfv3rJx40bp37+/3HnnnbJ7926VUWy9cOFCqVmzpixbtkzWrl0rDRo0kJ49e8aO86Nv375yzjnnyMCBA+P264YDoUqisOtCgJDKRHsb60xASHiGHwjJD43nya+XGJjTTnZNx5mhQEh+YUF49YczTNkBIZWb/sA4S4JAuHzrflPZ0URVI8wXCBn3UTU+WyM8s015jKeC8F+bjIkDoY6FCAj/odGomGmMRggIZ6wrr+fpgPBvnx1p5KThM34gZIDckgLhggUL5Prrr5d9+/aZmrl//36pXr26TJo0Ka6moum98cYb8u6778b2z5o1S66++mrZs2ePHD58WNq2bSsPP/ywPPHEEw6EMSlF40cyEHKMjzlbjTCfIAQ0OBHQaumpwr0IN7GdJTwDiyY0QrbDglBBQ95clwqES8r2mXLkEoR6b69p/MmUDQaEAI+yEY7DGk2TtReE5IO3mUBvEiDkPNs0BoSMb0jIDueH1QjJh/O9IPxm3olg/GQgvPez+eY9RkojxIStV69ezMQ9evSoPPXUU8a81Q+KNfsxmwcNGhTbjVZ46qmnGk3ywIEDRhvEVG7Tpk1SEHbu3NnAkzxdKowE6FVhm8Z8zEzehGmslY/RkGkjzNQ0Jp98aYR+IOQZACFre1GJZgLCSywvdFgQ4kBSjfAXLcbLn98rH6rKNo0pH/JJZRrruygUCBm5+tqO5WMM2iCkicD+x8C3o6axPgsg1HZZTOOwIOQZye/Gt4bK/fffr68rcF2QyZswVW0QHjt2TFq3bi1du3aNKxgaX40aNeJAuHXrVgPCVatWxZ2bCoRVqlSRRx55RBYtWhR3ndvInwT+s9nYlCDEjEwXhFQWPJ0EVAOD/9Wg3GwKYxrT04R2Pg2fSWYaFwOEl7SbntQ0Vo0QMNggVNMxnyDEjOe+QRoh3vowGiF9lH/Xurz90gahaphAS8HlB0LKwJIuCP/pya/l/9Z+Q+6+++6UH31BQEiboA1CtLSmTZsmjBmIpnfPPffEgZB5SdEI0QztlAqELqDallZhfisI9cNl7dUIFYR6TpCzBFMTs4rK9s8vjDEVBRASp8e1VBz6HLcZuTpp+AztfoCQAUj/8fnRpgtXUBuhDUKtnNwrnxoh+dNT4n9aTpADh4+ZZ6avNc9PGQoFQpoAaL4ArGoac3/KFwRCjvmBkK53f/fcKFN+3mEQCNHYwmiE3IcFEH42Y5PJl7IlM405Tv7ntBoud99bN2UFKAgIZ8yYITfeeKMcPHjQFAjnyb333itDhw6NKyCa4osvvijdu3eP7V+6dKn86U9/ku3by0fs1QMOhCqJ6KxzCULMaT7+ZCCkyx4ffLI4QgXhsrL9QghIWI2QfFkogx8ImViKpKbx+S2l2N4AACAASURBVG9P8fUao+Fg1mpAtQGNZRqTv/ZW+cv70wwIa39W7mHn/rkGIaYmWhn3tU3jYoCQMtgg/E3LCXGm8T88P9q0EXIeCyAkzlLfDSAs1zDLnTl0sdM4Qs4BhH9Tf4BUv7teykqSFIR79+4V2toef/xxwTSdM2eOzJ49O2Wm3hN27twpt9xyi7meY0uWLDHhMXiQvWn48OFSp04d4xjhWPv27eWVV14RIGknB0JbGtH4XSwQapuhX0C1F4TEqaERMuQW3k6tVKzRCP+7xQRTgXQ/FdAPhECr+eDlMRBynl/4TBgQnnZ8BB4F4dlvlv8ToAxVO5ePIE3+YU1juvXpMFz6HMQRnty63Olx/vF4xHyBkK57YTRCnskGIdu2aZwpCP+fZ0cKsswJCFesWGG8tbVr15aqVavK3LlzZcyYMXLJJZfI1KkngiTDVsHRo0cbrZCGy2rVqsXMX9oF77vvPunQoYPJCm0R8BFCg21ft25dAaTe5EDolUjxt/1ACHj4z02F5EMPMo1pTOe4LulohFxD/n4g5BimsWqEnEcZiIWjsigoWCtoqEB0z2Mf1/uBkHMYGEI1Qs7LFoSntJ5kNEIbhGhwWg4tH86SZG2EjzDr3PGBWfX5AKH2QlEQEv+osuOfCeP/GY31uNdY75uuaUx8YRAIT3t9UqyvMfdOB4QvD1lhwpv0mbjeTyNkP71oeEc/enKwVL/nwZSVw1cjRPtq1KiRjBtXPpH1yy+/bEBIbmiFTz/9tPHwpsy9SCe4OMLiCD4bEAIePmBdwoCQc+nJwhotIFMQqkapoKECkZ+CoBAg/PemY4XRbWhTyyUIf67jB/qAUIHIcwJK1jYIgRayzSUINT96wvA7HRDyD4xr0gEh599c55GUFcIXhMT72ZqYDUK0MzQ4jQlMeYcinOBAWAShi4gfCPloAc0Zxz/8II0wFQhpZ7OdJVqRkoGQSsCCRoi5xgjYlEc1QkxSLR/rfIIQDY4+sAY0njZCymGDkPO0wtsaIUHO7A+jEf6k6VgzVD/tojybn0ao8tHjrNMB4f9+dmTMWfLZ9E2xOEKGx7I1wis6nOiaxz0Bq74/7ndW28lGg+MY/c/1PXhNY1suyIvztb2T3zRV4GjiNwv/0FhnDELMVbQ+tD+SDULaCDnGOVFNDoTFeTPJQPibVuV9dDMBoX7YNgh1nxeE7Kdd0AYrIPzrR+UB3VR2BSHnsg2o7YBlrUBU0PL8EuMIqYhcG2Qad5u60VRobSNMB4T6bORvg1D3pwNCfcYwIKTHCGBitj6uC6sRVusy23QZ1IBqHEeAkHeDhstzAGbW5OsFIR5zTFl9viAQ6nHy8QMhmjttv3qevseMQUg1GjVqlPHWfv755/L888+b/r8ABg/usGHDilPTQt7VgTCkoHJ8mh8IqRRoYsUGoZraVKIgEDLZEZVIK1AUQIjsFAxawf+mwYiUbYSqEXINz5wKhJzHvQCh3icsCDkfzUxBSFskIASsf3M85tMGIftsjZDrIwtCYv0A3oMPPmjgd/bZZ5uQF3p9eAdByHF9yjo7B8KsRZhRBn4g1EqlIGSmOgKqdX9QHKGCi9AYPTcbjVDz495BINT7ZAtCTDrVCJkECbOeyg8cjOmZwjTWcqgG9dNm5Wag7metzhLuxbaChWtwltggBKQEoev12jao23oftjMFIU0ffiAkT5xSrO37aHn1fumAEI1YNULaQDUP1vY99D1mpRFmVBMicpEDYXFeRBgQUiGiBEJGsqZM2o2L31qB0tUIuRZTFji1GLoipskBQo6xUFntLnbs87YR6rl2pdZ9ulYQ6raC5ey2kw0ICUJX+LFPz2PtBaF6kzmmUOF3Ohoho0IXCoQ4lRSE9nPx25aZvse0QUisIN3ePvroo6QL5jJhLlFNDoSFfzMMmYUppB+f9wNVjZD9lQGEtHupSVtIECJfNEJb/pUJhOrh5vn1W0wbhIsXLzY9O5o0aSIvvPCCXHvttXLrrbcK2yx33XWXnH766fLSSy/FeokUvsqlvqMDYWoZ5foMJtPJJQjRLvmYc2UaKxi8pnGQRogpqxqOX/gM4y2iSdnOEu6hGmEyEHKeanD8zkQjpD1TQevNL6og/K9mJ9of9flVA03HNE6mERKLiTxYMgahXTlGjhxpRodhaCxN/AYyDIVl79fjUVk7EBb+TeQahPoxFwuE3D+ZaRwr3/FhuHTbBuEZx8fx82qEnKsg4HcQCBm4VfP1W9uanp0fweL2+fZ57LfPZTsXpjH56D8O21nCfm0jLDkQMl4gTpIdO+InVKZ6sY8YQxdHWHjYRPmO+QIhIyFTmViycZZoHmE1Qs7PFoR6z0KD0AYOZfCCUMul62KAEMcR94+0RkiMYP369WX69PKJqu0KOHbsWBNHGGXPsdMI7TdWmN/5AqFWVtZ+INTj2rOEbb84Qj3PC0Jtr0zXWaL5aZCzbqtGqNusU4GQc2j8154lem2mGqEXhAobzde7TgVCPV+HzaIJRP9BMfqMHk9HI9RrtGz5MI3xnHOftNsI7SoD8M477zxp1aqVjB8/3izNmzeXCy64IKOBF+y88/3bgTDfEk7MPx0Q0vdYK0JQ+Iwet9e5BCEhNHbemYLQzoPf2YLQm1+ybVvTs81dLwiT5cGxsCBkCDTAFRaEDJNG/n6msZZJQ4PyAUK9R1YgpL8x84YwbP7NN99sFkaCWb16daTbB6miDoSJoMr3nnRAqB8o63yAkCGlvD1L9J6qEeq2rh0IT4T3qEw0fEa3WacDQqYI5ZpkINS8IwvCfFecfObvQJhP6frnnQqE+sF71+mCkBFevHmwrcHKeiwZCG1TVc8vNAjVJNT7q2ms22HWQRoh/wjCXK/nhNUIOT8dEKI5ck0YENb6ZE6szOoN9/Y11vKG9Rrr+RlrhDhCmGzp5JNPTlhOOeUUM5yWc5b4A6Gy7s0UhOoVtsGlH7B3jWns3afb2kZIzxX22fnR11jP0zZB3dZ1oUGo99U1AwpoFz/dl2odBMJU13mPpwNCrv2XF2gjLO+pYrcRar7kRxsiQd3sCwPCSGqEdK9jVOkJEybEFobkYlrNq666yows7R0oNUoAcBph4d9GpiDUymODS/d512FAqNfY+ZUCCLXc6ayLBUK7jEEgtM8pWRAmq0ZMzcnAqVGeHc6BMNkbzM+xQoBQvYB2JdPfqhHqdrFAqPe317Yp7jWJ7fPS/W2D0L5Huvkw9JVeY5ePfry6P2idDghVQ9S8dMRstiOpESarKsQRMt+IM42TSanyHSsECLUC+a2zBaHd9qg9EsLEEfqVxbvPhpQNGu956W7bIEz32qDz0y1fOiAMuif7cwVCv3tk3EaItsekSQsXLoxb5s2bJ6+++qo0bNjQaYSVj3VJn/jDievM5EgKEb8PMtk+W4NLdl7QMR2aSo/b+YUxjfU61voMDoTlnmRbNt7fFRqEaHu1atUycYTEEupy2WWXCXOYAMkoJ2caF/7t1O5ZPvOaQsRbYVJt2+BKdW6Y43Z+DoSpgaYyTVcj1Ovste18Yb+2EdrneH/7aYTec3Q7mddYz7HXGWuEVCN6jtDDxF7YF2UniVZ/B0KVROHW2YLwRw3CV1b7Iw/6HQRCBh8Nukb3K8ydRphaVioze50JCNHoNQ8Nn9Ft77pgIGT+4Q8++EDoc+xNaIvvvPOOHDhwwHsoMtsOhIV/FdmC0PuxZ7sdBEI73yDniwPhCSjZ8gr7OxMQ2nmnAqF9bpjfaWuEgG/SpEkyYsQIqV69ugmTsUNo6Gr3xRdfmHmHHQgLD5so3zFqIGSgUK0ktmms+9JZ+w3Dlc71dthPLkxPvXcUnCVaFnutQ6jZ+9L5nQyEtuMpbJ4ZgfC2225LCKLWwOo//OEPpu1w8uTJUa6TrotdEd5O1EBoV5Jig9DWkCoDCG3ZZ/I7GQgzyS9tEGr9wTT++OOPfU1jPadY671795qyvfHGGybo229cRGcaF/7tKAi1W1UmH2y+rskWhEG9UcKW19ZiHAhTm93Zvi/ve0kbhECG4foJn1m5cqUsWbLEd+FYMZwmxDBWq1bNhO/QhnnJJZfI8OHDE2q9A2GCSPK+Q0Ho/Qh1O9cft+YbZl3Me1M+G4TaBTBMuVOdE1XTOFW5C308bRDSBnj77bfLtm3b5KabbhJMYb+FY8UIqB4yZIg88cQTsflS6Ab42GOPJYyG40CYd+4l3IAhmgr9gYe9X7p9eMPmG/Y8vJxhz03nPAfC1Nol8kwbhGiCOEEwN1njPPFb9JyE2pDnHW3atJF+/frF7gKM69SpIzt37ozt44cDYZw48r4xbsWO2GjO6VRkd264ihwkJy8Imag+6Nyw+3Npuoe9Z77PSxuEAG7dunWydu3apMvGjRsTtLC81zYReeqpp4S5VDQB7Pvuu0/WrFmju8waEDZ6r7t8NXODzF9TJl/N3iwrtu036xnrdkvv2Ztl5NLt0mrYSrNv6ppdZr20bJ98v3qn+c01E1fulP7zy2Tgwq1mX7+5W2Twoq0yfsUOs/3qsJVCfpxLfsMWb5M+czbLqu0HYnlwbMGmvbHtb+eXyYAF5flxjGX0su1mPWv9nth5eow15eO+3P/N0atj50xYeaKswKjn9I0yadVOGbO8vHyzN8Tn98GEdaZ85Dlk0Vb5eu4WaTdurclv8ZZ9sXz13t/MK39ezY/909eWP6+ew/q6TjOzroD5rgwu/3DQDfL4Mm9xqcowbRBiGp977rly1llnJV0YqLUYpnE6IGzT+TNZUrbPd1lWtt93f9D53v0rtx3I6npvflHdXlq2X1hSlW/o4m0ZVRIdgqtUK1hlKnelAiHOEhwhqRY0sGI4S95880355ptvYtqfM41joijqj4Wb92UEwjPbxA+XX0ywMP1mMe+fy3unO1R/mHsHgdCvr3GY/Ap5Ttoaobc20WaIpxZTmIW2uGIAUMuFs4RJpej2R5o5c6Y88sgjCWa6ayNUiRVmvWzr/owgkikIdVDQbCoTg4va1zsQJjedcw1C5o225Z/P31mBcPfu3cYje/7558cCrC+66CJp0KBBUcxiqjTebEbObtSokXTq1Ekuv/xy0/vFW90dCL0Syf92Jh9ypiDMh4fagbCwICSMqFDe/IxBiBPi7bffNtN2Ll++3Ghc7OM3GlnXrl0TtLD8V7XyO6CVfvjhh9KyZUuZNm2abzkcCAv1Nk7cp1AgpDHfgTA5tKJmGvuNPlMSIKTtjcFXvWEpfPZbt241nlq/ARlOVIvi/nIgLLz8hy1J32GSiUYIBB0Ig0EIdBwI4+WTsUZ46NAhE6qyYsWKhBq1fv16c0zb6RJOiMAOB8LCvwQHwvjKl4mGnKtrigHCZPcMoxGe9tqkvLUZZgxCHCK9e/eWGjVqyMCBA2XRokVmIYYPTZF+vkzmxDJlypTC17oUd3QgTCGgPBzOJwgZhl/bk0pJI8z14AFhQZkMSmHz8J6Xylny6yRe9zAgtAdm9d47ne1/fiExqDxjEGIaB03nqSPR6Pq6667LQ7XKLksHwuzkl8nV+QQhk/78+LlRRmOoLCC86N2pGWtIlRmEp7RO1CwzBiEVAfM47JJJxcnnNQ6E+ZSuf95RAiGjUDPhu58mYc/YZh+3vcY6MKt9PJPf2WiENgjPfyd1P257qK8og/Cy9tPNe/E6S3KlEeYchJjHtBHimfUuc+fOdZM3+fOg0u6NEgiTQStoSC0/EPqZWcny9h7LFwh/3CgR8n+wusDlE4Te/swaUO01jU+12vxs07jkQIhWdcYZZ8ipp56asNxwww1FiyUMQxqnEYaRUm7PqYgg1DlLvIALu50vEP6ixfgEbbdQILTnIkYOQSC0ZVSyIGTwBQYzmDp1qhmFhoFavUtuq1Fuc3MgzK08w+Q2be1uwalhV4BUv8OGz2TbRmhrJ+lohA6EJzzh6ixJBUIFo/3uU4GQ8RojaRoDvUcffdT05AhTCaJ2jgNh4d8IIPzJi2MTQPhfzccl7NNKUhFB+E+NT3gtS0kjtNsk9f2c9voJx0O+QPi3z5ab+emC8Iw2/qPh5LyN8LvvvhPG/4tyvGBQdXcgDJJM/vYDwsuPN4RrRUq1rogg/NNbU0THCfSC8PTX/Suvn5xsMHmdJbk0jc88DhT7flqedEB4yfvTzD+8dDVCHf8wsiBkNrs//vGPcuaZZ8rFF18ctzCKdTGG4QpbjR0Iw0oqd+c5EJabkYBQQeIFYTqmtg2mXIDwV9asflo+1gou+356/OL3yuHGtq0RMi+NanJ6vf4T1G1G5VanTjLTOJ8g1IE1Mg6fIWzm/vvvN3Mbl5WVma52dLfThQEZ6Hsc1eRAWPg3U2wQUvFoS9RKbK9pI/z7457WfLcRRgWECiGVgx/oOKbg8jsepBGGASHhSzqRV7FAqHPFZAxC+hHXrVvXt69x4atY+nd0IExfZtleYYPwdKttSSui37qQprHeKxMQ/k2DEfJvTfwh632uqIDQ24bmBzoHwhNf/Uknfp74hbbXpUsX+fbbb4s6/uCJEqX3y4EwPXnl4mwbhOe+GW7AVYWTFybe7TBeYzzW/9bUH1ZohHovQKjmmH0fO45QTVo1ZRk7L+zsc6lAqI35QUPi/3vTcoeTDa50TGNMYOIIcw1CTF+6OeI1TqUR8k8jrEaoWqe2EXJdmMmuvM+n71Lly3bWGiFe49dff93MYMcYhEyhaS8PPPBAJOc81grtQKiSKNw6WxCekwSe6YLQaxbaIDzXasPTysPaBqH2LMkXCAGrtqnZZeD3ya0nGvM+LAi1D7bGEZJvsUH421YTQ4NQ/ykpCPG6azOGVzb2dkFAyMjUxBCOHTvWd+EY50Q1ORAW/s1kC8I/JZkONF0QXtquvBuXVhwbhJmZxrnVCHMJQgVJKYCQ3ifeniVa/kiCMKgaYTIzX0n//v0jHVbjQBj0BvO3PwiEdMnydstSQKm5yvbvrS5ielzXuQYh3kQdxIF7MJBDrjVCyqwmtj4HGiamWzIQotFRPltjTGYaK0iyBSH3w+S120LVbKX8HA9rGqMR/vqVCSY/3r06S8iv0CCkm+Tt9R5L+eH7thF6r8JUpt/xww8/bLrb1apVy4XPeIVUybeTgdCu1AoF1slA+KMGJ3o15AuEv2lVPmFTpiCkggM1+5loI6SNC7AqCLWtKhkItV0MWaUDQo0pzBUI7XeVDQjJB7D+/KVxOQch7cFhTeOcgJDRqFu3bm2G5PrDH/5g5gqZMGGCmdApyvXeaYSFfzthQMikS7Z2mAyEOD60y16UQeitkIAQsF707rS0QKj5pAtCBZcNQu6v+Smktc2R9jd7ZB4Nn1FwaX5clwsQntFmsgEh/xhypRHyD8j7fJSXfV5nScYgZErPESNGyLPPPitnn3221K5d20zYxGxxpdLLxIEwmiDEHNUgVz7cfINQ49i8bYRqGqMR0japGqF6csM6S6iQP38pfgAEBeEVHWYEghDA1/pkTpwmednxdk0bhJiYyCmZaazgskHIPhZ1pJCHghBnxD80GmVMV/b7gZBwoX9sPDopCDHJ+admX6/5UW7uj/xpr1Vw1fh4Tlqm8flWuzHw1m9H8+N+9nJpu2m5AeH06dONp5jeJO+8844ZcIEqNWfOnLhpNAtfzdK7owNhevLKxdlhNEIqDpVDJ3bPFQgxozV8Buips0TbHcOCUE3ZdEDodb54QQhUbNMYQPiB8K4e80yl5riaxslA+Of3ygdu5XxgYIPwqg9myBUdkoPw/i8WmOtskM1cF99N0k8jVMDRswSz3L7eD4Sjlm03IKTb4S2fzE0Aof4j8TpLGFMyDAiRr8IwZyCcOHGinHXWWUJ4DBOp08OE5ECYC1RU7DzCgPDtMWuEblu5BiH5JQPhhe9ONdonQARcQRqhDULOpU2P82kH9Isj/G5BmVzbcWasIlIhbRACDRZAeMrx/Nj2A2HjActMPhxXECoc/DTCZCActnibPNF3cUwj5B8QkKB8qhECKAUXa+6bDxAu3rLPgLD1iFXSY/qmBBByX+6vz6rhM5jSYUCozhfyyBkIqap0qXvrrbcEhwhzGhNP+Mknn5g5jp1pXLFhls3TRRmEVDa0z4vfn2bABtT+4fnR4jWNbRAC7FRxhNv3H5G/dp1tKjIVkQUQvjl6jdzWba6BC/cGhFR08mP78NEf4kzjFwYuk9dGrDLXc1xB+ECvheYaPxBW6zIrdj73RSPEfOR6QEi6u+d8098XLZz9ADEMCNGw0fjS1QgZ/RsN0TaN1+866AtCyoPprs8bFoRokLZpnDcQamVghOrt27dL48aN5ZRTTjHe4ubNm8uuXbv0lMiunWlc+FdTSiCs1mW2gY2C8JGvFsV5eTGNFYT0pAjSCINAOH/TXmkxdKVU7TRTAFamIHxj1Gp56KtFvm2EDb9ZmgDCnzYbGwdCvgK8tgrCqz+cGQqEAIoh1dIFIcDOBIT8g0gHhM99uzTmLPEDoY6og9wzdpb4VSGAOHjwYHnmmWfMqNWPP/54rP3Q73y/fXibb775ZjML3k033SRDhw71O02OHDlihv+qWbOm3HnnnfLggw8m9HlGM23RooUpk18mDoR+UsnvviiCEG0D7Ya1rRH+9aN4ED7auxyEd3Yvb6fDeaIg5Fo/ENI+Bgjv/by8rc3WCBWE1T+eI7sOHomBsMqHM+SpfotDa4TJQNh04HL5zxfLwacaYTIQ1vtygbQZtVoafLPUOEuSmcbZgvCxPouk3hcLDIDDaIQKQjTKVKYxGuHz3y0zIGQKUAUhTRhqGqsmn3MQ2lVox44d0rNnz7RAiBZ51113ybx580xWixcvNiE5mzZtsrM2v8eMGSN16tQxPVcI4H7//felZcuWsT7P3P+VV14xQ4Qx1ahfciD0k0p+9yUDYcP+S40ZWqg2QuClkPAD4QsDlhkNUDVCBWGjb5cZDYLrFYTfzC3zBSFaByAkKQRZYxoHgfDN0auFRU1jwIVTIMg0tkFoD6MFhNuOWi14pilrMhByHI2w8XfLEkBIKI1ez1rbCLMF4QcT1pn7cd90QAi4AOH/aT7OvB+/NsIgENI0UFAQZlKdmPuYeU4IzCbhhGF+ZK9WiDn+wgsvmDZJvc+SJUvkvPPOM2Y6YyDSdvnee+/Jq6++auZc1vPstQOhLY3C/M4lCDFN04kj9DpLqNR+IHym3xLTRrjzQHnbXjYgvL3bvMiBEG85z65thLx5trMFIW2q5KNteuTn5zVW0zhbEHKvIGdJEAgB/ZUdpssNnWfF2nbzqhFmUq3oklevXj1j9nI9/ZSbNm0qPXr0iMsOs5i4xUGDBsX2ozUygdTatWvN9QsXLjTaIaNnJ9MIO3ToIKtWrUpLc43d1P1IWwLpgJAPHS0mKHwGj20YEHIewdYKQrQC9pG/HwjR+DChUoHw7h7z4jRC8vN6jVsNWykHjxwzcuJZdBa3TDTC7tM2+jpL0tUIr+wwQzB5w4Bw9oY9ZnADfRes/TRC8ruj+7xAENK2hxec63MBQvJh8YIQ0OFECgLhws37hOe/6aPZBoRcDwj/rsFQqXXvQym/51Bd7FLmkuIENDQbhGh+9Fjp2rVr3JW0/dWoUSMOhPRuAYRAzU6pQIjmiHOHroEuFUYC41fuMIDTYbjwYtLu03r4qjjTmA89FyAkHxuEbHtBSOXBaQF0/UDINV7TOBkINfC5x7SNMaHyLBqwHATC6h/PNufbpjGVGtM4VyBES/WC8JoPy81nr2m8ctv+pCBELjhLUoEQZxBDh5FfpiAEpiyAi/uyeEHIPx3e4e9aT5T3xq5NaCNcVrZfrrJASH5//2R/+Vnzcbnraxx74yF+ALP69etLlSpVzNKuXTsZMmRIHAjRCJ9++mnp1atXXI7sxzlia4Tr1q0zINywYUPcualA6NU24y52G3mRgBeEfMwENU9ZsysOhPd+Nt/0x9XYNkCiwc/8BmZhNEIqTCoQck7P6ZsCQYjHuFgg5Jlpw8wEhDv2H0loI/QDIQ4gZBAWhPd9viBmAhcKhHU+mx8ahGh8PDvd6XCW8GyEPZXtPSxVPjihEdpgzdmgC+nUGmDWp08fad++vVnGjRsnixYtMs4RneeEEbDxIBPAbSecI23btjUOEt0/a9YsA9Q9e/boLrN2IIwTRyQ2vCCkhwOVnQZz2uPUWfLAlwsNCPmIAV9YEAJWPLraJY7rASFrNc+8GiHHvp6zJQ6EaBc1P5kjDb5ZIl0nbzAgxKwynthmYyWVRsg9cqER+oGQ0B7KzBJkGj/zzRLzvtVkRX40C/iB8KXBK2TW+j0GhJ0mrY95jYM0wgd7LYwUCB/+apH5PlQj9AMhsrJBSJA7IESD5FhRQOhXI5knGU2vb9++JmAbjY8JoPAmAz+0PUJ0SLNnzzbm8cqVK4X2Qfo8d+/ePSFbB8IEkRR9hxeEjb5bZkBIwRSEwDEVCAlv8dMIuTYbEG7bd1gIaSER8PzKsJVCWxkaIZVn/+Fjwkxz+QThkrJ9Ma/xNR1nJmiEqsGFAeFT/ZaYig4I6cIGCEkTV+40a/4Awrkb9kiTAcvli5mbQoPwiT6Lk5rGNDngvU5lGlOGXQeOiLdnCc+nzpdkGqEfCMmz0XdLYxoh34WC8LE+i6Xt6NUGhNwjUiCk4OvXrze9U5gRDygyriEJU5rJ5HFukGg/HD58uFStWlUuv/xy6dixo+9gDw6ERlyR+gMIf9livGgb4artBxJA+HifxZECIWAitg6TsBAg5IUx79mKbftl3sa9viAcu3yHXPPhzJQaoYJQgaIgtD8KQMh7YJ1LEAIY2kODQMg9Ma1J+QThFe2nyy2fzo2BkPtFGoT2y8n3bxc+k28J++cPCAl98QMhGgumcbogZBQUvMKMXMN//hcHLU/bNKa0gxdtE1sjxLRFI1y+db8823+pjFiyPQZCtBCCjwnMJY6QSq9eY5wlmZjGbUauThBaEAiBQwG4fAAAHPhJREFUCBqqbRqrV5qeG2oaKwhpFsDUDwNC2gppTrBNY/558Yx4jdU0DtIIb+w8y4TjoLky1FgQCDFlkR9p36Gj0nfuFuGfjgZAcz8FeDYaoQ1C/pmRHAiNGEQcCI8LosArBSGaAk4AKrQmHBaZgJBwFyqugnDOhj0pQUg82Wmvf28qNxWO5AUh+4JAiNm1Zc/hrED46vBVxgzXniWZgrDT9+uNN5bnwATOFoRohnSfW7PjQMxrTN4sqUDI8F20SxJHSFC6F4Q4LcgH548NQv0GWHOcgGnWgBAHByCkjZbmCtpIGYmHf6gEVKcyjRWE9j3eHbfGmMbXd55l7hOZNkK7kIX47UBYCCkn3kNByEfOBEq5AiFgBYQMIpApCOkFcuTYD7E2QkqfTxB2m7oxIxAS4mNrhNmCkLxY1DRWEPL8fedsMaDgfbGkAiHnJAMhxz+bUd5bLBkIcezcf9w7/VCvhQaE3advlKf7LTEgRHMnr0xBOGzJNgNCtHzycSBMrKtuTx4lAAj58FhSgZDuXQzUiZbDggeVa4irw1lyT8/5xhOMRmjye26U1PtyYcYg1MfGNNekIPxkygZZtHlfzDT20wgpA+X0M411tBiOaxxhpiAEVOmCkC57QaaxPitNANPW7Jb+88uMRsj+tTsOxt7X0MXbzHYy0xgZNBu0PFAj5HhYEPIeiBskMB2NECjnGoTfr9plns+BUL8Cty6IBDIBISa0glDn/wCEU9fsioGQQFk0QtrtbI3wuo4zjeeSCmiHz/iZxioALwh1P2t1lkQRhA99tTBmynrbCMOAUJ8TEG7de9hs2iCcsKrc0wwI6e87Z+OeBK8xcv52XlnWICSshfESya//vLJAEDKO5GO9E8NnKLx6jf1MY9UIHQi//DKh+55+CG6dPwlkAkLaixSEDDYKGL0gbDd+rQEhmlI6ICSf8StOhJLw5GFA2GbkqoQ2Qiqtan5eZ4nuz6dGiJf5p83GGS06nyAcvWx73kF466dzZeqa3XL1hzOSghBN8cMJ68z3YccR8h4dCEPUY9dGGEJIeTglHRD+d4sJplLbIAQ2DL3uBSHdvDgvCITEJaIR3tx1tvHoqkbI0PBHj/0Q96RhQMgFXmcJZWNOE9ZhQEge9jBcYZ0lQaYxIMSU3H3wSILXOBuNkOYJnkk1QoLfgzRCNGY/jZA2PbzQ5BPGNAaExP0BwkVb9gVqhKlAeM6bk+XlwSvkg4nr4t6x0wiPi8OBMO67KNhGGBBSmB7TNxpvIZUwlyCs33exgRQVjJQKhF7BqGnMfgUhv6ngLPkG4V/en2acGn5thPkCITGUX87cXHQQbtp9KKGNMBUIeSeAcPOe8ilF9H3qACDONHamsX4TBV0DwleHrzSDlfKRUqE1ET7z7fwys7ly24EYCHUQTZwlXBNWIySmUNsIVSNUEI5ZXt5LyQ+EWh6/tReExKORKBdLEAh5Bo7bpjHXpaMRDliw1QxBP2b5Dl9nSRAI8eJmoxFmCkLeZe3P5ps4wlxohGFBWOd4rCDfEzJPBcIqb46Qu+rc5/e64/YVZPSZuDsWYMNphAUQss8tAGHv2ZuFcf/4SL0gnHS8QZ5LiR9DIwwDQnomeE3jQoKQ9ih6egSBkGdVEF74zlRj7vGMYUBIYz9xdyTG0sM0RW63d5trAqo1fMYPhFxD+EmxQEhbJQHVgJC0evuBUKZxk4HLE0zjsCA0NxIxA2kgc7+0tGy/MbvRCJv1mSZ169b1Oy1unwNhnDjcRjYSyBSEjAadTCMsNgiJP2Qe4jAgtP8BZANC2grpWVIRQTh3415fEDYdtDwujtDPNNbvUzVC3fauaS8GhJs2bXIg9ArHbedXApmCkJGVg0CI1uEF4SO9F8mHE9cJGia9G3JpGt/ds3zgAtoI1TRWEP6m1URBg/M6S1Qj5HgmINS3YmuEYUGIKZ2ORjh7/Z648JlsTGOvRrjn4FFZWrbPPE6ygOogEHIhPUs0oNoGocpI1w6EKokka2caJxFOHg/lCoTMcaJxhATaKggpOvOB4PmlrzAgfGvMGgNCArS/nLXJQCqbNkIFoS0mBSEj0zBxejIQMkmSphZDywcFxtsb5DUGrJq8IGSQhFQaIdemA0K9F2viCJOBkGYLe2BW22tMGyEgpI1STWM776Df/KOwQch5zEqHaUxSENL+mwyE63YelM7frw+6jYkgcBqhc5YEfiD5PJArEG7cfSgQhPSQoE1NQcjzoBEyKMKsDXuyAiGjwtC31Zu8IKSy2uMR2hqhDULNp1RByHOlAiGaa7YgHLF0ewIIv5tfHmitcYQqS3t94PhUCfY+/e1MY3GDLujHUOh1OiAkhEadJWoa0+ker3EqEKL52SAk/CMXIAySl4KQgRTQCKt3nRMHQrQXnD+YxrkG4eczyr2jtrNk5NJyr7iWF42QcfjopZFOQiPsNWtzYPhMGBAy6Gs6CXB6NUI70lM1Qp4xmUaY6p4OhA6Eqb6RvB33gtC+EW06ttcYM8sLQiqzgnD+xr1C0LXXNEYj9IIQM6kQIKRMfiDEW8qwWVU+mJkVCOl2tmXPIeM1BhiYxn4gtOXKb0DI+ZkmvzhC8vp+9S6ZunZXbPImP9M43Xv6gdDOI5cgXLvzoHOWuDlL7M+rML/3HT5q2vM0fMa+a7og5No3Rq4OBCEz0VExSQpCTCXa7zJtI7TLa/9WjTAZCBk1JgiEDAel/XvtfBmP0G4j1GOEz0QBhFoe2gHRsA4dOdGzRNsI9ZywawUhPX74B+JNDoReiWSx7ZwlWQgvB5f6gRBvpZ1UI2S4+iYDy4f0tzVCzk0GQjsvBSH7uk7ZUBQQUsGDQEjojV9KBUL6Vdsa4e9eLR/x2ZtXthqhnZ92sbP3AUJGtzl0NHcgtPO3f3tBOGX1LjOXjH1OmN+A22mEzlkS5lvJ2zl+IPTeDBASNEw7EH1DCZ/JFQgnr95lbpduzxJvGXU7jEYICO//YoGvaRwEQvJnEFJvUo2Q/TYIvefpdjFAuHXfYWk5bKUWIfRaNcKgC7wgDDov1f6Hv1poTnFxhJ7J41MJzh3PnQTCgpBKkWsQEv+nqRRAqGW111EGIc4RRqgGhJmkQoFQy+ZA6ECo30LB15mC8Jt5W8w0n3iNSZmYxvbDVgQQTl+723Rjw2sclHKpERKz+dy3y+JuRTykmsaMFsNUmXsPHY07J+xGKhCiIWMtqNc4bL5B5zkQOhAGfRt5358pCOdu3CN/99woEz5DIaMKQtrM7DhCGv2p4EGmMfuzSQxuUCgQ+pXTC0ImjcpXYiItkgNhDiTsnCU5EGIWWVR0EDLsUzogzEKU5tJUICQQnLCifCXybvjNUuMsQSPMJwj1GRwIVRJZrB0IsxBeDi7NNQgpEtNZkjSO0C6m7TW29+fLNLbvwW/VCIct3ibPfxdvVnrPzWQ7FQgzyTPda9B48Ro7EKYrOc/5+/fvlyZNmsgZZ5whTz75pOzevdtzxonNhQsXytVXXy3nnXee9O7dW37gX97xtGLFCqlevbqcddZZ0rJlS9mzJz4sg9McCFVaxVmHASElYwBN21niNY3bHo8j5Nwog1ClDAjpEpbrVBlBOHrZDqmbZZMC7yFSbYSHDx+W559/Xjp27CgLFiyQrl27Sr169WTv3r0J38zy5cvllltukUmTJsns2bPl0UcflX79+pnz5syZI1WqVJHhw4ebfFq3bi0NGzaUY8fKA2s1MwdClURx1mFBSOmSgZCeKvQsITkQ5s/0DfOVFFojDFOmMOdECoSLFy+WqlWrxsCHdlitWjWZMmVK3LOg+b399tvStm3b2P7p06fL9ddfL/v27ZNOnTpJ586dY8fQBu+++27ZuTN+gh4HwpiIivIDEG7YdTDUvW0QMum47SxZuHmvGVOOjFKB8JTWicHGhTKN9UGdRqiSiM46UiAcNmyY0QCPHDliJHT06FF54oknjNlri4z9aICDBg2K7V6zZo2ceuqpRsXluK39LV26VO644w45cCC+q44DYUx8RfmRDggJViagmn61JBuEduFtEC7zOAZoOGHCJ29yIPRKJPNtpxFmLrvYlb169YoDITDDrMVEthMmdI0aNeJAuHXrVgPCVatW2acaMN58880JMOUkQHjXXXdJq1atxHtdXCZuIy8SYJissBohBQCEX83ebMqSCoR5KXCKTL09S4JOdxphkGSKs79du3bStGlTYzWmKkHOh+oHcrTlTZgwwSw4N2jjo01QNULOeemll6Rbt25x5eP4nXfeGQfCzZs3GxCiGWqiHRHQffTRR4KW6E1OI/RKpLDbDoS5lXdldJbkSoJFM40PHTokt912m5x88slmeeWVV2Tq1Kly0003CcdIaH5MqGKbwOwHkI0bN5bPPvssJgegd84558i2bdvMPpwtV111lQwePDjOmxy7wHmNbVEU5bcDYW7FDgiPWpETuc09XG7ONA4np6RnATFM3kWLykf/RUu89tprZe3atQnXDRw4UB588MGY9oj5/MILLxjNDwjecMMNMnHixITr7B1OI7SlUfjfo5dtd6Zx4cWe1zs6EOZIvAMGDJArr7xS6tevb2IEaTckoR3ed9990qFDB7N98OBBefrpp+XWW2815nTNmjWFdkI8yo0aNZKzzz7beKDxQrNgIu/aVT7aiBbVgVAlURrrMG2EN3f1H8qqEE9IG2Hj75aJjkcYdM98tREG3a+Q+x0IcyRtQAbQaOsrKyuLmbXspx3Qhhkm9IYNG4zGqLGGet7q1avFXtavXx/nSaa4DoQ5emkFyiYMCAtUlKS3cSAsXM+SpC8ijYNFayNMo4x5O9WBMG+izUvGDoR5EWtOM3UaYU7FWZjMHAgLI+dc3cULwrK9mY11l6vyBOWTSiMMuq4i7G83bq2ZG6VQfY1zJTOnEbphuHL1LeU9Hy8I837DDG9w4PAxuarDjAyvrhiXORCW0Ht0GmEJvSyfgOrSKn3lK+2QReWhbKXw5E4jdBphKXynpoylohGWjEBdQWMScCB0IIx9DFH/4UAY9TdUuuVzIHQgLJmv14GwZF5VyRXUgdCBsGQ+WgfCknlVJVdQB0IHwpL5aB0IS+ZVlVxBHQgdCEvmo3UgLJlXVXIFdSB0ICyZj9aBsGReVckV1IHQgbBkPtq1Ow/GBmYtmUK7gpaEBBwIHQhL4kN1hXQSyKcEHAgdCPP5fbm8nQRKQgIOhA6EJfGhukI6CeRTAg6EDoT5/L5c3k4CJSEBB0IHwpL4UF0hnQTyKQEHQgfCfH5fLm8ngZKQgAOhA2FJfKiukE4C+ZSAA6EDYT6/L5e3k0BJSMCB0IGwJD5UV0gngXxKwIHQgTCf35fL20mgJCTgQOhAWBIfqiukk0A+JRA5EB49elQmTZok3bt3lzFjxpiJ3YMEsGPHDunbt698/vnnsmzZsrjTtm3bJl9//bV88cUXsmrVqrhjuuHmLFFJuLWTQOWWQKRAyOTsn376qVxxxRXStm1bufbaa+Wdd95JmJidV7Zv3z6544475OGHH5ZmzZrJ5ZdfbiaF5xiTuV9wwQXy+OOPy6uvvirnnHOOTJw4MeFNOxAmiMTtcBKolBKIFAgpzF//+lfZuHGjeRlbtmyRa665RpYuXZrwctD0nn32WQGepG+//dZA8fDhw0ZLfP311wXtkuMca9SoUUIeFQ2EM2fOTHjGUt6xaNGiUi5+QtmHDBkiR44cSdhfqjuoVxUlRQqE48aNk1tuuUUOHTpk5MtH8+CDDxqQ2QI/duyYPPPMM/LVV1/Fdq9cuVLOPPNMKSsri+3jx969e6Vly5by5ptvxu1no6KBsEuXLrJw4cKE5yzVHZ07dy7VovuW+5FHHpE9e/b4HivFnVhaFSVFCoS9e/eWevXqxf5rAjxM265du8bJG0ACzEGDBsX2b926VU499dS49kBAd9pppxmY7t+/P3au/ujVq5e0adPGmM2YzqW+qKxK/Tm0/C+88ELJvxN9FtY044wePbrCPNPZZ59dYZ4Ff0KdOnUUDYHrkwKP5PAAGp4XhK1bt04AIeZvrVq1UoIQyi9YsEBee+01eeyxxxIcL7t27ZIpU6a4xcnAfQPuG5DNmzenpFnOQYj5e9ttt8nJJ59slldeecV4ie++++4YsND8Hn30UenXr19cAWn7e/LJJ6V///6x/atXr5bf//73vg9z4MAB41hZu3Zt7Hz3w0nAScBJIF0J5ByEFADNDiCyALc1a9ZI1apVZffu3aZ8tKfgDZ47d25ceXGA0B4GPDVNmDBBbr31Vjl48KDxOA8ePFgPCZofxzCfXXIScBJwEshUAnkBobcwaICYsYS9fPPNN9KgQQOhnUhB+dFHH8nIkSPNZRs2bDDthB988IGJI6TNcPLkyebY999/bwDaqVMn6dOnj9EG33333ZiH2Xtft+0k4CTgJBBGAgUBIQVBowN4tBUCOcxaEhojsYW2y55AacJiaP8bP3583HMsWbJEnnvuOdNAPWzYMHN93Aluw0nAScBJIE0JFAyEaZbLne4k4CTgJFAwCTgQFkzU7kZOAk4CUZVAhQMhXfTmz59vwmsIui6lRND4nDlzZPHixbHgc7/y44yiD/bs2bNNfCXNC1FLtAtTRp7HGwwfVFacXnSjjGJCxgT3z5o1y/SQ0p5PfmWl2YfeMzgD6RsfxbRz505TPsrpF4urZSbml8iNKH9rWtagNUwg5C5ZqlAg5GFvuukmE2h97733yvXXX18yHmW6G1511VXy1FNPyY033ihNmzb17YuNg4n2U56N9cUXXyyffPJJsndc8GOUkeeoXr26NGzYUC655BKZOnVq0nIAD94Z8aVRS0CPrp3XXXedeS9EPAwdOtS3mERG3HPPPSaaARlcdtll5p+y78lF2klX1xtuuME4L4m6eOihh3zb2oEgYwLQHbZx48amn3/Hjh2LVOrMbovSgGMWp2qyVKFAiBPmpZdeMj1YEACVKmqQ8HsZOJLq1q0bCyQHJLVr1xZCh7xp7NixUrNmzVgoEqFJV155pSxfvtx7atG26RvNwBloHUBkwIABJj40qECcQ4UD7kQXRC3xD/auu+4S+siTeC88H+/JmxhdiZ5AHOO56E744osvek8r2jaaOlDTbo7UE/r28468iQgOenVhoZAAKDHC27dv954ayW2sCxQKBnvh+0qWKhQIH3jgAWO66APTP5eQHV5+lNO6devkjDPOiA1KQVnff/99o4VQmez03XffCeFDuh/zH03SG5NpX1Po35SPeFBNlJFuTsR9+iUiAZ5//nnp0aNHJEE4cODAuNhW1V4BhZ34h8b3RpMAx1asWBH7h2WfV8zfvAM0dHpmaSKkjQgNbz3hGejnDwj53gAL/xD4B1cKCeC//fbb0qFDh8oDQv6zYZLYYxTyItlHG0GU07x58+Sss84SxmHURJwkA1Ao8HS/d42JhnYSpfZQ/gvbvYMwsfgnhfbqTbShoQkCD/qQR1EjRJto3759rOg8z9NPP53wz4dnoVkDDYvnZWCRq6++OqZRxTIo4g+0Woays3tj0V+6Ro0asZA2LR7f3owZM8wxRo9i+DwGUEn1Ter1xV7TTEFZ+cdcaTRC/hvfeeedcSCkjyH/waIECb+Pg4ZoLwj5L013QypdUEJTufnmm03DfNA5xdhPnKcNQspAOxTOBjvxkfLfGujzO6ogpH3QBiHPQNsn781OOHsuvfRSadeunWlz490xsAjvMSoJM//888+PAyH98vmOvE4T6g916q233pJRo0aZf1JojqWiEarMKxUIeWj+A2OOaOI3/5mBZJQT5QSEdtsLwefNmzf3/e+LCdOzZ0/T4B1FLyvmiN2PXE1Jb1fIadOmCX3QaXti0fY0Ww5ReG+Mkfnee+/FikL7H9+aF+yUm66k2qbGBWheOIGikrA6cLDZ2jnjKdJ04W3z5B0yJoBtMuMAst9tVJ4rWTkqHQgxyRjiXxMvuEWLFr4w0XOisKbdpkqVKnFjDqJVffbZZwnFQ8ug/ZCK6G2jSji5SDsw15s0aRLzRBJ+QUWzKxRFw+mA51sXGuIxk6PmmaQ9rX79+rHyo1XhsPKOQcjz0UZIjydNeMvDDAOl5+d7jVJw++23Gw1P74VWzrieXpOXIaxw4tHspMk7Xqjuj/K60oGQMeEIC0CN52OkUqF1RD0BNzRATCj6VfMB8rGqlxLThf18qAw6ceGFF5rBawG9Lnb7YrGfF1CgGQFyyo5WrnCjmQIPpZ+WHlXTmLKiuVKh8IjzT4roBN4b5iTdQ9URpIMQ817oHkr7LRplVBLfEBodWiptgzSv8A9I2wxxMI4YMcI8G//ACBX6+OOPTVshcwhhKvN+SylVOhDycgAGXlSAOH369JJ5X3yghPr8+c9/Nh8bnmRNjMSNZkvFoxKee+65CUuUvMaUm/YlNKGLLrrIDJ5B2UmY8jTM+4EbbZ72qCgmzF60PWRPe6EGsRMsjiPBbpLBwUCbGzGETFTm1bSi8HxEH+A95l3YHmTCf/jHpVogjkYcQ3/84x9NbGjY4PgoPKOWAZCj9SZLFSp8JtmDumNOAk4CTgJBEnAgDJKM2+8k4CRQaSTgQFhpXrV7UCcBJ4EgCTgQBknG7XcScBKoNBJwIKw0r9o9qJOAk0CQBBwIgyTj9jsJOAlUGgk4EFaaV+0e1EnASSBIAg6EQZJx+/MqAQKrCXYPmn+a7msMGlrIuDVi5uz4zSABEDPoFxAedL7bH30JOBBG/x1VyBIy0jNDj+n81941g2kSkN27d++CPD8B33Rd9E4W5ndzhgtjMIUoBkr7ldftSy0BB8LUMnJn5FkC9NJgiCe/gWjzfOtY9owkE3bINkZfefjhh0tm9PPYQ7ofgRJwIAwUjTtQKAn4gZAuXvSHRSNkMAOG8aKrFANrMHoKg07QPxbNjKHk6dtsdzPE9KaPKaMTA1n6ciczZ5s1axYbsANNj6kTuMdf/vIXM+w+XTe1myByIT/K47TCQn0l+b2PA2F+5etyDyGBsCBkhB4mg2IwCsYDBIj0mWWbgQQYGAHYASeOM6oNw3vRv5nBUhn01YaZFo0BPO1BLhhglekPmBaBocMYOJcBVoGjJjRIAFtqY/Np+d06XgIOhPHycFtFkEBYELZq1SpWOgZoQBPUQXeBIaNDM9gDvxl0wx6rkVFVGJnZb+gyRpS55ZZbYgMpMFbfOeecYwZMQBsFrAw0y2gsmhiBhTEk7bEH9Zhbl54EHAhL751VuBKHBSFOCk2DBg0yYwIy6CsJza1atWoGhHiiGVmFgW0ZtYeFOVFOP/10M5yU5qFrhgVjxBVNlAfoAkO0TgaMBYK2NsnoORwP41zRfN06uhJwIIzuu6k0Jcs1CBlnj6GxCM/BO20vqkHawqWd0QYhxygTmiFj89FWyPBbjN2nSUHI2Jculb4EHAhL/x2W/BPkGoQ4UZiD2DaNARfmrQ6gagsNmNmjSGNac64OXY9pzIxoL7/8cuwy2hHPPvtsEwcZ2+l+lKwEHAhL9tVVnILnGoSYsPfff78xh3GEMKQ+c44w4bx3eH2kyJzQtBGqVxlN8LzzzjNmL0HWQJSJ0O2RppktkTZCe+6PivNGKt+TOBBWvnceuSfONQh5QNoMGe0aby8Lc6gE9VLBIQI4mV+ZhAaIA6V27dom/Ia2R6YdUFByzsiRI818HvY+c7H7U5IScCAsydfmCp1rCRAT2LZt2ziHSNA90DhxwDBHjksVQwIOhBXjPbqnyFIChMMQFxhmKlH6QdMLRef1yPLW7vIISMCBMAIvwRWh+BLAHMbcZSa9VInAbHqauFRxJOBAWHHepXsSJwEngQwl4ECYoeDcZU4CTgIVRwIOhBXnXboncRJwEshQAg6EGQrOXeYk4CRQcSRw0u7DP1Scp3FP4iTgJOAkkIEE/n8V5m9nrCSDgwAAAABJRU5ErkJggg==;" vertex="1" parent="1">
          <mxGeometry x="668.41" y="840" width="134.17" height="110" as="geometry" />
        </mxCell>
      </root>
    </mxGraphModel>
  </diagram>
</mxfile>
